<svg width="92" height="95" viewBox="0 0 92 95" fill="none" xmlns="http://www.w3.org/2000/svg">
<g clip-path="url(#clip0_5603_3842)">
<path d="M31.1565 18.5576H9.44452V52.8698H31.1565V18.5576Z" fill="#E0E0E0"/>
<path d="M30.4972 19.2023H10.0298V52.3061H30.4972V19.2023Z" fill="#F5F5F5"/>
<path d="M28.4244 21.1301H20.2626V33.7944H28.4244V21.1301Z" fill="white"/>
<path d="M24.7775 22.2618C24.7775 22.3222 24.7596 22.3813 24.726 22.4315C24.6925 22.4817 24.6448 22.5209 24.5889 22.544C24.5331 22.5671 24.4717 22.5731 24.4125 22.5614C24.3532 22.5496 24.2988 22.5205 24.2561 22.4778C24.2134 22.4351 24.1843 22.3806 24.1725 22.3214C24.1607 22.2621 24.1668 22.2007 24.1899 22.1449C24.213 22.0891 24.2521 22.0414 24.3024 22.0078C24.3526 21.9743 24.4117 21.9564 24.4721 21.9564C24.5531 21.9564 24.6308 21.9885 24.688 22.0458C24.7453 22.1031 24.7775 22.1808 24.7775 22.2618Z" fill="#E0E0E0"/>
<path d="M20.2007 37.3192H12.0389V49.9834H20.2007V37.3192Z" fill="white"/>
<path d="M16.5529 38.4379C16.5533 38.4984 16.5357 38.5577 16.5024 38.6082C16.4691 38.6587 16.4216 38.6982 16.3658 38.7216C16.31 38.7451 16.2486 38.7514 16.1892 38.7399C16.1298 38.7284 16.0752 38.6994 16.0322 38.6568C15.9893 38.6142 15.96 38.5598 15.948 38.5005C15.9361 38.4412 15.942 38.3796 15.9651 38.3237C15.9881 38.2678 16.0273 38.2199 16.0775 38.1863C16.1278 38.1526 16.1869 38.1346 16.2474 38.1346C16.3281 38.1346 16.4054 38.1665 16.4627 38.2233C16.5199 38.2802 16.5523 38.3573 16.5529 38.4379Z" fill="#E0E0E0"/>
<path d="M18.898 21.1301H11.9275V31.019H18.898V21.1301Z" fill="white"/>
<path d="M15.6667 22.029C15.6667 22.0793 15.6518 22.1284 15.6239 22.1702C15.596 22.212 15.5563 22.2446 15.5098 22.2638C15.4634 22.2831 15.4123 22.2881 15.363 22.2783C15.3137 22.2685 15.2684 22.2443 15.2328 22.2087C15.1973 22.1732 15.1731 22.1279 15.1633 22.0786C15.1535 22.0293 15.1585 21.9782 15.1777 21.9318C15.197 21.8853 15.2296 21.8456 15.2713 21.8177C15.3131 21.7898 15.3623 21.7749 15.4126 21.7749C15.446 21.7746 15.4792 21.7809 15.5102 21.7936C15.5411 21.8063 15.5693 21.825 15.5929 21.8487C15.6166 21.8723 15.6353 21.9005 15.648 21.9314C15.6606 21.9624 15.667 21.9956 15.6667 22.029Z" fill="#E0E0E0"/>
<path d="M28.6957 37.4871L21.241 38.3286L21.7072 42.459L29.1619 41.6175L28.6957 37.4871Z" fill="white"/>
<path d="M25.3117 38.7005C25.3117 38.7516 25.2965 38.8016 25.2681 38.8441C25.2397 38.8866 25.1994 38.9197 25.1521 38.9393C25.1049 38.9589 25.053 38.964 25.0028 38.954C24.9527 38.944 24.9066 38.9194 24.8705 38.8833C24.8344 38.8471 24.8097 38.8011 24.7998 38.7509C24.7898 38.7008 24.7949 38.6488 24.8145 38.6016C24.834 38.5544 24.8672 38.514 24.9097 38.4856C24.9522 38.4572 25.0021 38.4421 25.0532 38.4421C25.0872 38.4421 25.1208 38.4488 25.1521 38.4618C25.1835 38.4747 25.212 38.4938 25.236 38.5178C25.26 38.5418 25.279 38.5703 25.292 38.6016C25.305 38.633 25.3117 38.6666 25.3117 38.7005Z" fill="#E0E0E0"/>
<path d="M19.1089 40.2077C19.1089 40.2418 17.8279 40.2696 16.2481 40.2696C14.6683 40.2696 13.3852 40.2418 13.3852 40.2077C13.3852 40.1735 14.6661 40.1479 16.2481 40.1479C17.8301 40.1479 19.1089 40.1735 19.1089 40.2077Z" fill="#E0E0E0"/>
<path d="M19.1089 41.1128C19.1089 41.147 17.8279 41.1747 16.2481 41.1747C14.6683 41.1747 13.3852 41.147 13.3852 41.1128C13.3852 41.0787 14.6661 41.053 16.2481 41.053C17.8301 41.053 19.1089 41.0808 19.1089 41.1128Z" fill="#E0E0E0"/>
<path d="M19.1089 42.0202C19.1089 42.0543 17.8279 42.0799 16.2481 42.0799C14.6683 42.0799 13.3852 42.0543 13.3852 42.0202C13.3852 41.986 14.6661 41.9583 16.2481 41.9583C17.8301 41.9583 19.1089 41.986 19.1089 42.0202Z" fill="#E0E0E0"/>
<path d="M19.1089 42.9254C19.1089 42.9595 17.8279 42.9873 16.2481 42.9873C14.6683 42.9873 13.3852 42.9595 13.3852 42.9254C13.3852 42.8912 14.6661 42.8656 16.2481 42.8656C17.8301 42.8656 19.1089 42.8934 19.1089 42.9254Z" fill="#E0E0E0"/>
<path d="M19.1089 43.8242C19.1089 43.8562 17.8279 43.884 16.2481 43.884C14.6683 43.884 13.3852 43.8562 13.3852 43.8242C13.3852 43.7922 14.6661 43.7623 16.2481 43.7623C17.8301 43.7623 19.1089 43.7986 19.1089 43.8242Z" fill="#E0E0E0"/>
<path d="M19.1089 44.7379C19.1089 44.7721 17.8279 44.7999 16.2481 44.7999C14.6683 44.7999 13.3852 44.7721 13.3852 44.7379C13.3852 44.7038 14.6661 44.6782 16.2481 44.6782C17.8301 44.6782 19.1089 44.7038 19.1089 44.7379Z" fill="#E0E0E0"/>
<path d="M19.1089 45.6453C19.1089 45.6773 17.8279 45.7051 16.2481 45.7051C14.6683 45.7051 13.3852 45.6773 13.3852 45.6453C13.3852 45.6133 14.6661 45.5834 16.2481 45.5834C17.8301 45.5834 19.1089 45.6111 19.1089 45.6453Z" fill="#E0E0E0"/>
<path d="M27.9923 39.2363C27.9923 39.2704 26.7328 39.4775 25.1679 39.6974C23.603 39.9173 22.3284 40.071 22.3242 40.0369C22.3199 40.0027 23.5859 39.7978 25.1508 39.5779C26.7157 39.358 27.9881 39.2043 27.9923 39.2363Z" fill="#E0E0E0"/>
<path d="M28.1018 39.8041C28.1018 39.8362 26.8401 40.0433 25.2752 40.2632C23.7103 40.483 22.4379 40.6368 22.4337 40.6047C22.4294 40.5727 23.6933 40.3635 25.2581 40.1436C26.823 39.9237 28.1018 39.7679 28.1018 39.8041Z" fill="#E0E0E0"/>
<path d="M28.2104 40.3272C28.2104 40.3614 26.9508 40.5663 25.3859 40.7883C23.821 41.0104 22.5507 41.1598 22.5507 41.1278C22.5507 41.0958 23.8103 40.8887 25.3773 40.6666C26.9444 40.4446 28.2061 40.293 28.2104 40.3272Z" fill="#E0E0E0"/>
<path d="M27.7069 23.7795C27.7069 23.8137 26.2595 23.8414 24.4725 23.8414C22.6856 23.8414 21.2382 23.8137 21.2382 23.7795C21.2382 23.7453 22.6856 23.7197 24.4725 23.7197C26.2595 23.7197 27.7069 23.756 27.7069 23.7795Z" fill="#E0E0E0"/>
<path d="M27.7069 24.3175C27.7069 24.3517 26.2595 24.3794 24.4725 24.3794C22.6856 24.3794 21.2382 24.3517 21.2382 24.3175C21.2382 24.2834 22.6856 24.2578 24.4725 24.2578C26.2595 24.2578 27.7069 24.2855 27.7069 24.3175Z" fill="#E0E0E0"/>
<path d="M27.7069 24.8577C27.7069 24.8918 26.2595 24.9175 24.4725 24.9175C22.6856 24.9175 21.2382 24.8918 21.2382 24.8577C21.2382 24.8235 22.6856 24.7958 24.4725 24.7958C26.2595 24.7958 27.7069 24.8235 27.7069 24.8577Z" fill="#E0E0E0"/>
<path d="M27.7069 25.3957C27.7069 25.4299 26.2595 25.4576 24.4725 25.4576C22.6856 25.4576 21.2382 25.4299 21.2382 25.3957C21.2382 25.3616 22.6856 25.3359 24.4725 25.3359C26.2595 25.3359 27.7069 25.3616 27.7069 25.3957Z" fill="#E0E0E0"/>
<path d="M27.7069 25.9337C27.7069 25.9678 26.2595 25.9956 24.4725 25.9956C22.6856 25.9956 21.2382 25.9678 21.2382 25.9337C21.2382 25.8995 22.6856 25.8739 24.4725 25.8739C26.2595 25.8739 27.7069 25.9017 27.7069 25.9337Z" fill="#E0E0E0"/>
<path d="M27.7069 26.4738C27.7069 26.5079 26.2595 26.5336 24.4725 26.5336C22.6856 26.5336 21.2382 26.5079 21.2382 26.4738C21.2382 26.4396 22.6856 26.4119 24.4725 26.4119C26.2595 26.4119 27.7069 26.4396 27.7069 26.4738Z" fill="#E0E0E0"/>
<path d="M27.7069 27.0118C27.7069 27.046 26.2595 27.0737 24.4725 27.0737C22.6856 27.0737 21.2382 27.046 21.2382 27.0118C21.2382 26.9776 22.6856 26.9584 24.4725 26.9584C26.2595 26.9584 27.7069 26.9776 27.7069 27.0118Z" fill="#E0E0E0"/>
<path d="M27.7069 28.6109C27.7069 28.645 26.2595 28.6728 24.4725 28.6728C22.6856 28.6728 21.2382 28.645 21.2382 28.6109C21.2382 28.5767 22.6856 28.5511 24.4725 28.5511C26.2595 28.5511 27.7069 28.5767 27.7069 28.6109Z" fill="#E0E0E0"/>
<path d="M27.7516 29.1809C27.7516 29.2129 26.3041 29.2406 24.5172 29.2406C22.7303 29.2406 21.285 29.2129 21.285 29.1809C21.285 29.1488 22.7324 29.119 24.5172 29.119C26.302 29.119 27.7516 29.1467 27.7516 29.1809Z" fill="#E0E0E0"/>
<path d="M27.7965 29.7487C27.7965 29.7829 26.3491 29.8107 24.5643 29.8107C22.7795 29.8107 21.3299 29.7829 21.3299 29.7487C21.3299 29.7146 22.7774 29.689 24.5643 29.689C26.3512 29.689 27.7965 29.7146 27.7965 29.7487Z" fill="#E0E0E0"/>
<path d="M27.8436 30.3188C27.8436 30.3508 26.394 30.3785 24.6092 30.3785C22.8244 30.3785 21.3748 30.3508 21.3748 30.3188C21.3748 30.2867 22.8223 30.2568 24.6092 30.2568C26.3961 30.2568 27.8436 30.2846 27.8436 30.3188Z" fill="#E0E0E0"/>
<path d="M27.8883 30.8867C27.8883 30.9208 26.4408 30.9486 24.6539 30.9486C22.867 30.9486 21.4216 30.9208 21.4216 30.8867C21.4216 30.8525 22.8691 30.8269 24.6539 30.8269C26.4387 30.8269 27.8883 30.8547 27.8883 30.8867Z" fill="#E0E0E0"/>
<path d="M27.9332 31.4567C27.9332 31.4908 26.4857 31.5165 24.7009 31.5165C22.9162 31.5165 21.4666 31.4908 21.4666 31.4567C21.4666 31.4225 22.914 31.3948 24.7009 31.3948C26.4879 31.3948 27.9332 31.4225 27.9332 31.4567Z" fill="#E0E0E0"/>
<path d="M17.9291 39.9429C17.9889 40.0774 19.1929 41.9796 20.2198 42.4834C21.2467 42.9873 22.675 43.8818 23.3432 45.2588C24.0114 46.6358 24.4107 47.7652 24.9935 47.6969C25.5763 47.6286 25.0618 52.4193 23.9581 52.4385C22.8543 52.4577 20.7429 51.7105 19.5815 50.8907C18.4201 50.0709 17.5469 49.456 16.8381 48.6064C16.1294 47.7567 16.4816 47.1653 16.4816 47.1653C16.4816 47.1653 15.681 46.4992 15.7814 45.8288C15.8817 45.1585 15.8817 45.1521 15.8817 45.1521C15.4419 44.7593 15.0619 44.1188 15.9927 43.568C15.9927 43.568 14.6456 42.8293 14.9765 42.1589C15.3074 41.4886 16.2404 41.732 16.2404 41.732L17.105 41.1256C17.105 41.1256 16.7976 40.7777 17.105 40.1073C17.1287 40.0236 17.1749 39.9481 17.2388 39.8891C17.3026 39.8301 17.3815 39.7899 17.4667 39.7729C17.552 39.7559 17.6403 39.7628 17.7219 39.7928C17.8034 39.8228 17.8752 39.8747 17.9291 39.9429Z" fill="#FFBF9D"/>
<path d="M25.7553 47.4001L24.7625 46.7682L22.0469 53.2028L23.2275 53.8433L25.7553 47.4001Z" fill="#E0E0E0"/>
<path d="M22.3114 49.7485C22.2468 49.742 22.1839 49.7239 22.1257 49.6951C21.9634 49.6303 21.8093 49.5465 21.6667 49.4453C21.2028 49.099 20.8353 48.6396 20.5992 48.111C20.3673 47.5863 20.2044 47.0338 20.1146 46.4672C20.0631 46.2362 20.0324 46.0012 20.0228 45.7648C20.0951 45.9897 20.1514 46.2194 20.1915 46.4522C20.3022 47.0065 20.4733 47.547 20.7017 48.0641C20.9332 48.5775 21.2829 49.0289 21.7222 49.3813C21.9109 49.5157 22.1077 49.6383 22.3114 49.7485Z" fill="#FF5963"/>
<path d="M75.3419 75.0428L74.0609 65.5596L46.8665 67.7457C46.1039 71.1227 45.8463 74.5941 46.1022 78.0466C46.1577 78.7618 46.9989 85.9735 48.0855 94.9999H61.3753L60.8288 83.8792L61.6443 84.0564C61.6443 84.0564 62.8078 89.2442 64.0461 94.9444L77.496 95.0021L75.3419 75.0428Z" fill="#263238"/>
<path d="M62.4012 78.0723C62.2727 78.1676 62.1329 78.2465 61.9849 78.3071C61.595 78.5051 61.1798 78.6488 60.7509 78.7341C60.4467 78.7899 60.1349 78.7899 59.8307 78.7341C59.4727 78.6762 59.1391 78.5161 58.87 78.273C58.5906 77.9899 58.3897 77.639 58.2872 77.2546C58.1698 76.8682 58.1036 76.4647 58.0203 76.0548C57.7022 74.4131 57.4866 72.9122 57.3607 71.8234C57.2987 71.279 57.2561 70.8371 57.2347 70.5318C57.2108 70.3743 57.2065 70.2143 57.2219 70.0557C57.2714 70.2074 57.3029 70.3643 57.3158 70.5233C57.3692 70.8691 57.4332 71.2982 57.5101 71.8042C57.6724 72.8845 57.9115 74.3768 58.2274 76.0142C58.3897 76.8255 58.4986 77.6496 59.0045 78.1321C59.5105 78.6146 60.2129 78.6551 60.7274 78.5804C61.1483 78.5071 61.5594 78.386 61.9528 78.2196C62.0965 78.1545 62.2469 78.1051 62.4012 78.0723Z" fill="#455A64"/>
<path d="M59.3999 70.3525C59.3999 70.3525 59.464 70.3012 59.6135 70.2927C59.8144 70.2867 60.0113 70.3501 60.171 70.4721C60.2967 70.5586 60.4007 70.6731 60.4748 70.8065C60.5489 70.9398 60.5911 71.0886 60.5982 71.241C60.5864 71.4306 60.5201 71.6128 60.4075 71.7657C60.2949 71.9187 60.1406 72.036 59.963 72.1036C59.7855 72.1712 59.5923 72.1862 59.4064 72.1469C59.2206 72.1075 59.05 72.0155 58.9151 71.8818C58.82 71.7635 58.7533 71.6249 58.7204 71.4768C58.6874 71.3286 58.689 71.1749 58.725 71.0274C58.7663 70.8311 58.8723 70.6543 59.0262 70.5255C59.1372 70.4401 59.2184 70.4272 59.2205 70.4358C59.0403 70.5993 58.9175 70.8165 58.8702 71.0552C58.8497 71.1788 58.8561 71.3053 58.8889 71.4262C58.9217 71.5471 58.9802 71.6595 59.0603 71.7558C59.1705 71.8544 59.3056 71.921 59.4509 71.9483C59.5963 71.9756 59.7463 71.9626 59.8848 71.9107C60.0232 71.8587 60.1448 71.7698 60.2363 71.6537C60.3278 71.5375 60.3857 71.3985 60.4038 71.2517C60.4011 71.1266 60.3712 71.0035 60.3162 70.891C60.2613 70.7786 60.1826 70.6793 60.0856 70.6003C59.8908 70.4439 59.6496 70.3567 59.3999 70.3525Z" fill="#455A64"/>
<path d="M59.3367 26.6766L56.4482 9.69342C55.8675 5.44496 52.9128 2.2426 48.6814 2.94071L48.295 3.02825C46.4151 3.45127 44.7637 4.56705 43.6697 6.15324C42.5757 7.73943 42.1195 9.67958 42.392 11.5871C42.915 15.2677 43.5406 19.3261 44.0017 21.2582C44.9581 25.2612 49.1127 24.9793 49.1127 24.9793C49.1127 24.9793 49.5866 27.4345 49.8022 28.6236L49.3582 31.5719L52.537 30.1608L59.3367 26.6766Z" fill="#FFBF9D"/>
<path d="M49.1128 24.9751C49.1128 24.9751 51.6747 24.5481 53.9889 22.2509C53.9889 22.2509 53.4125 25.5515 49.3263 26.0937L49.1128 24.9751Z" fill="#FF5963"/>
<path d="M44.4007 14.969C44.4336 15.1185 44.5233 15.2492 44.6509 15.3337C44.7784 15.4182 44.9338 15.4498 45.0842 15.4219C45.1575 15.4112 45.228 15.3861 45.2916 15.348C45.3552 15.31 45.4106 15.2597 45.4546 15.2002C45.4987 15.1406 45.5306 15.0729 45.5484 15.001C45.5662 14.9291 45.5696 14.8543 45.5584 14.7811C45.5269 14.6312 45.438 14.4996 45.3106 14.4145C45.1832 14.3294 45.0275 14.2977 44.877 14.3261C44.8034 14.3368 44.7327 14.362 44.6688 14.4002C44.605 14.4383 44.5494 14.4887 44.5051 14.5485C44.4608 14.6082 44.4288 14.6762 44.4109 14.7483C44.393 14.8205 44.3895 14.8955 44.4007 14.969Z" fill="#263238"/>
<path d="M43.6454 13.1626C43.7329 13.2224 44.0937 12.8039 44.7128 12.6652C45.3319 12.5264 45.8529 12.7335 45.902 12.6438C45.9276 12.6033 45.8251 12.4837 45.5945 12.3855C45.2866 12.2595 44.9468 12.2333 44.6232 12.3108C44.3021 12.3816 44.012 12.5529 43.7948 12.7997C43.6368 12.9876 43.6027 13.137 43.6454 13.1626Z" fill="#263238"/>
<path d="M49.7255 14.1169C49.8151 14.1724 50.1524 13.739 50.7716 13.5789C51.3907 13.4188 51.9137 13.6024 51.9586 13.5106C51.982 13.4679 51.8774 13.3547 51.6426 13.2651C51.33 13.1514 50.9897 13.138 50.6691 13.2266C50.3507 13.3096 50.0673 13.4921 49.86 13.7476C49.7105 13.9354 49.6828 14.0934 49.7255 14.1169Z" fill="#263238"/>
<path d="M48.5789 17.1805C48.5789 17.1442 48.1754 17.1656 47.5371 17.2254C47.3748 17.2446 47.219 17.2467 47.1678 17.1464C47.1188 16.9864 47.1188 16.8154 47.1678 16.6554C47.2304 16.2412 47.2958 15.8064 47.3642 15.3509C47.6246 13.4978 47.7762 11.9885 47.7015 11.9778C47.6268 11.9671 47.3535 13.4722 47.093 15.3168C47.0333 15.7715 46.9735 16.207 46.918 16.6233C46.8621 16.8372 46.8832 17.064 46.9777 17.2638C47.013 17.3141 47.0591 17.3557 47.1127 17.3857C47.1663 17.4156 47.226 17.4331 47.2873 17.4367C47.3797 17.4398 47.4722 17.4319 47.5627 17.4132C48.1968 17.3001 48.596 17.2168 48.5789 17.1805Z" fill="#263238"/>
<path d="M49.1295 12.6865C49.2533 12.821 49.8062 12.5051 50.5257 12.3044C51.2452 12.1037 51.8771 12.0631 51.9091 11.8774C51.9219 11.792 51.7639 11.6831 51.4821 11.6212C51.1061 11.552 50.719 11.5732 50.3528 11.6831C49.984 11.7839 49.6449 11.9721 49.3643 12.2318C49.1487 12.441 49.074 12.6203 49.1295 12.6865Z" fill="#263238"/>
<path d="M43.1756 11.3266C43.3336 11.4397 43.8054 11.1878 44.4096 11.0533C45.0138 10.9188 45.5496 10.9146 45.635 10.7416C45.6734 10.6605 45.5624 10.5281 45.3105 10.4492C44.9669 10.3494 44.6029 10.3428 44.2559 10.4299C43.9076 10.5068 43.5867 10.6764 43.3272 10.921C43.1436 11.111 43.103 11.269 43.1756 11.3266Z" fill="#263238"/>
<path d="M56.7916 12.7377C56.8535 12.6929 59.3641 11.301 59.8957 14.0635C60.4273 16.8261 57.5473 16.7919 57.5238 16.7129C57.5004 16.634 56.7916 12.7377 56.7916 12.7377Z" fill="#FFBF9D"/>
<path d="M58.1671 15.5025C58.1671 15.5025 58.2226 15.5281 58.3101 15.5495C58.4338 15.5763 58.5632 15.5541 58.6709 15.4875C58.942 15.3253 59.0979 14.8129 59.0168 14.3133C58.9792 14.0747 58.888 13.8476 58.7499 13.6494C58.7078 13.5691 58.647 13.5001 58.5727 13.4481C58.4984 13.3961 58.4128 13.3626 58.3229 13.3505C58.2649 13.3462 58.2072 13.3624 58.16 13.3964C58.1127 13.4304 58.079 13.4799 58.0646 13.5362C58.0432 13.6216 58.0646 13.6729 58.0646 13.6793C58.0646 13.6857 57.9963 13.6451 57.9984 13.5277C57.9992 13.4561 58.0257 13.3871 58.0731 13.3334C58.1049 13.2974 58.1435 13.2681 58.1868 13.2472C58.2301 13.2263 58.2771 13.2142 58.325 13.2117C58.4428 13.2118 58.5585 13.2423 58.661 13.3003C58.7635 13.3583 58.8493 13.4417 58.91 13.5426C59.0735 13.7597 59.1819 14.0132 59.226 14.2813C59.3156 14.8407 59.1299 15.4171 58.7542 15.6092C58.6839 15.6446 58.6068 15.6641 58.5282 15.6663C58.4496 15.6685 58.3715 15.6534 58.2994 15.622C58.1841 15.5687 58.1585 15.511 58.1671 15.5025Z" fill="#FF5963"/>
<path d="M59.0254 6.2007C59.326 6.08606 59.5973 5.90592 59.8196 5.67338C59.8668 5.63559 59.9033 5.58624 59.9258 5.53012C59.9482 5.47401 59.9558 5.41303 59.9477 5.35314C59.9135 5.23572 59.779 5.18448 59.6637 5.13965C59.0127 4.90548 58.4271 4.51898 57.9558 4.01242C57.9281 3.95478 57.9024 3.89927 57.8725 3.84163C57.3452 2.8126 56.5169 1.80066 55.3747 1.62773L55.3512 1.64267C54.3158 1.44199 53.1309 1.66829 52.4712 2.49663C51.993 1.09187 50.5178 0.195206 49.0234 0.10127C47.5289 0.00733445 45.3321 0.66275 44.0896 1.46761C43.2356 2.01842 42.4863 2.90654 41.6473 4.13838C41.5362 4.30277 41.4231 4.47142 41.3078 4.64862C41.2971 4.66143 41.2907 4.67851 41.2801 4.69345C40.9938 4.93757 40.6558 5.1135 40.2916 5.20797C39.6895 5.38943 39.2711 5.26561 38.7694 4.88559C38.6178 4.77031 38.4257 4.62514 38.257 4.7148C38.2083 4.74995 38.1682 4.79568 38.1397 4.84856C38.1113 4.90144 38.0952 4.96009 38.0926 5.02009C38.003 5.66057 38.3937 6.29036 38.9253 6.64903C39.1884 6.81839 39.4766 6.9452 39.7792 7.02477C39.0731 7.57691 38.2513 7.96226 37.3753 8.152C37.023 8.22672 36.6537 8.27155 36.374 8.5192C36.2428 8.63132 36.1595 8.78948 36.1413 8.96113C36.1136 9.33901 36.4466 9.5525 36.7626 9.65924C37.2462 9.81874 37.7662 9.83137 38.257 9.69554C38.1462 9.77128 38.0572 9.8749 37.9991 9.99595C37.941 10.117 37.9158 10.2512 37.9261 10.3851C37.9578 10.5801 38.0527 10.7593 38.1962 10.8951C38.3397 11.0309 38.5238 11.1157 38.7203 11.1366C38.9176 11.1504 39.1152 11.1128 39.2937 11.0275C39.4721 10.9422 39.6255 10.8121 39.7387 10.6498C39.626 10.7725 39.5325 10.9114 39.4611 11.0619C39.1046 11.8198 40.1742 12.4752 40.6844 11.8112C40.8434 11.9982 40.9923 12.1935 41.1306 12.3962L41.1605 12.4325C41.2482 12.5587 41.343 12.6799 41.4444 12.7954L42.8599 14.8834C42.6976 13.7348 42.356 11.7322 42.2792 10.4812C44.0191 10.0542 45.2168 9.10844 46.1412 7.57558C46.6301 6.76645 46.9696 6.21351 47.7211 5.64135C48.6796 4.90908 51.739 5.53888 52.9708 5.72034C53.1677 7.97561 53.8384 10.1639 54.9392 12.1421C55.1078 12.4453 55.8273 13.5512 56.1689 13.6131C56.8371 13.7326 56.4913 12.9214 56.9375 12.6695C57.2833 12.4752 57.4776 12.52 58.2184 12.3642C58.3486 11.6212 58.1522 9.69981 58.18 8.63449C58.5789 8.67695 58.9822 8.62654 59.3584 8.48718L58.8439 7.68446C59.0138 7.7643 59.1985 7.80792 59.3862 7.81255C59.4789 7.81148 59.5691 7.78263 59.6452 7.72973C59.7214 7.67683 59.7799 7.6023 59.8132 7.5158C59.8772 7.28096 59.6851 7.06533 59.525 6.87533C59.3393 6.66525 59.1722 6.43953 59.0254 6.2007Z" fill="#263238"/>
<path d="M51.2867 3.20544C51.4525 3.29091 51.6116 3.38868 51.7628 3.49793C52.1604 3.82086 52.4672 4.2417 52.653 4.71909C52.7877 5.04394 52.8892 5.38154 52.9562 5.72677C53.0309 6.09824 53.0779 6.50387 53.1312 6.92872C53.1799 7.37706 53.2562 7.82197 53.3597 8.2609C53.417 8.49352 53.4927 8.72124 53.586 8.94194C53.6695 9.18173 53.8128 9.39628 54.0023 9.56533C54.0882 9.63 54.1893 9.67145 54.2959 9.68566C54.4024 9.69987 54.5109 9.68637 54.6107 9.64646C54.8027 9.57148 54.9637 9.4338 55.0676 9.25577C55.228 8.91132 55.2936 8.53029 55.2576 8.15202L55.1743 8.17978C55.3564 8.46045 55.5779 8.71353 55.8319 8.93126C56.0758 9.13059 56.3866 9.22912 56.7008 9.20666C56.8467 9.19282 56.9862 9.1397 57.1043 9.05295C57.2126 8.96693 57.2923 8.85005 57.3327 8.71777C57.3723 8.59637 57.3782 8.46652 57.3498 8.34203C57.3202 8.22699 57.2525 8.12539 57.1577 8.05381L57.1235 8.10078C57.4174 8.32996 57.7564 8.49438 58.1184 8.58327C58.2132 8.60693 58.3095 8.62404 58.4066 8.63451C58.4407 8.6374 58.475 8.6374 58.5091 8.63451C58.4768 8.62265 58.443 8.61546 58.4087 8.61316C58.3447 8.60035 58.2486 8.58114 58.1269 8.54698C57.7744 8.44673 57.4456 8.27686 57.1598 8.04741L57.1235 8.09438C57.2067 8.16622 57.2652 8.26233 57.2909 8.36918C57.3165 8.47604 57.308 8.58825 57.2665 8.69002C57.2275 8.80848 57.153 8.91207 57.0531 8.98677C56.9455 9.06485 56.8184 9.11142 56.6859 9.12127C56.3928 9.14004 56.1038 9.04523 55.8789 8.85654C55.6307 8.64351 55.4149 8.39537 55.2384 8.12L55.1551 8.00258V8.14775C55.1893 8.50827 55.1274 8.8714 54.9758 9.20026C54.885 9.36016 54.7439 9.48552 54.5744 9.55679C54.4898 9.59134 54.3976 9.60322 54.307 9.59124C54.2164 9.57925 54.1305 9.54383 54.0578 9.48847C53.8826 9.32844 53.7498 9.12745 53.6714 8.90351C53.5804 8.68727 53.5055 8.46464 53.4472 8.23742C53.3444 7.80255 53.2674 7.36199 53.2166 6.91805C53.1611 6.49106 53.112 6.08757 53.033 5.70969C52.9613 5.36047 52.8547 5.01931 52.7149 4.69134C52.5191 4.21035 52.1985 3.79029 51.7862 3.47444C51.6366 3.3565 51.4675 3.26548 51.2867 3.20544Z" fill="#455A64"/>
<path d="M39.5447 9.5696C39.5447 9.5696 39.5447 9.5696 39.581 9.59095L39.6963 9.64646C39.7588 9.67559 39.823 9.70124 39.8884 9.72332C39.977 9.75583 40.0676 9.78292 40.1595 9.80444C40.7496 9.94382 41.3649 9.93501 41.9507 9.77882C42.8229 9.54946 43.6098 9.07184 44.2159 8.40394C44.9448 7.58304 45.4984 6.62191 45.8427 5.57947C46.0412 5.03293 46.1842 4.48426 46.3572 3.96975C46.5113 3.47194 46.7349 2.99832 47.0211 2.56284C47.281 2.17099 47.6348 1.8503 48.0501 1.62989C48.2387 1.535 48.4412 1.47085 48.6501 1.43988C48.8436 1.41534 49.0394 1.41534 49.2329 1.43988C49.5675 1.48659 49.8884 1.60374 50.1744 1.7836C50.3913 1.91926 50.5845 2.08945 50.7465 2.28744C50.8765 2.46306 50.986 2.65286 51.0732 2.85319C51.0732 2.85319 51.0732 2.83825 51.0625 2.81049C51.0518 2.78274 51.0347 2.74004 51.0177 2.69094C50.9544 2.53958 50.8734 2.39625 50.7764 2.26396C50.6162 2.05835 50.4228 1.88086 50.2043 1.73877C49.914 1.54943 49.5863 1.42491 49.2436 1.3737C49.043 1.34695 48.8399 1.34695 48.6394 1.3737C48.4219 1.40354 48.2106 1.46843 48.0138 1.56584C47.5833 1.78893 47.2161 2.11719 46.9464 2.52014C46.6522 2.96014 46.4235 3.44052 46.2675 3.94626C46.0903 4.46504 45.9473 5.01372 45.7509 5.55385C45.4106 6.58365 44.866 7.53417 44.1497 8.34844C43.5571 9.00863 42.7871 9.48441 41.9315 9.71905C41.3567 9.87898 40.7518 9.89802 40.1681 9.77456C39.9565 9.71841 39.7483 9.64998 39.5447 9.5696Z" fill="#455A64"/>
<path d="M38.8295 7.86591C38.8813 7.89771 38.9374 7.92214 38.996 7.93849C39.149 7.99493 39.306 8.03989 39.4657 8.07299C39.7041 8.12274 39.9461 8.15343 40.1894 8.16479C40.4879 8.17388 40.7867 8.1553 41.0818 8.10928C41.3729 8.05964 41.6588 7.98317 41.9358 7.88085C42.1636 7.79536 42.3836 7.69036 42.5933 7.56702C42.735 7.48519 42.8706 7.39315 42.9989 7.29161C43.049 7.25719 43.0942 7.21627 43.1334 7.16993C43.1228 7.15498 42.92 7.31296 42.5613 7.50724C42.3505 7.62047 42.1314 7.71754 41.9059 7.79759C41.6276 7.89214 41.342 7.96355 41.0519 8.01108C40.7623 8.05526 40.4695 8.07526 40.1766 8.07086C39.9376 8.06508 39.6993 8.04225 39.4635 8.00254C39.0771 7.93636 38.8359 7.84883 38.8295 7.86591Z" fill="#455A64"/>
<path d="M50.6334 18.2544C50.6462 18.3099 50.1638 18.5084 49.5937 18.8265C49.0237 19.1446 48.5711 19.4158 48.5263 19.3667C48.4814 19.3176 48.8935 18.9397 49.4827 18.6323C50.072 18.3248 50.6185 18.1882 50.6334 18.2544Z" fill="#263238"/>
<path d="M44.3758 29.9259L41.3506 31.0788C41.3506 31.0788 40.7913 33.0685 40.7913 34.5309C40.7913 35.4361 35.7401 49.8595 35.7401 49.8595L25.4456 47.193L22.6489 54.5392C23.2232 54.7997 35.2149 59.7228 39.0876 59.9277C43.144 60.1412 46.0005 48.1858 46.0005 48.1858L44.3758 29.9259Z" fill="#263238"/>
<path d="M37.4652 55.1605C37.4481 55.1605 37.4033 54.8445 37.3072 54.3343C37.1821 53.6716 37.0196 53.0166 36.8205 52.3723C36.6195 51.7279 36.3814 51.0956 36.1074 50.4787C35.8939 50.0047 35.7551 49.7165 35.7701 49.7079C35.8177 49.7676 35.8592 49.832 35.8939 49.9001C35.9665 50.026 36.0647 50.2118 36.18 50.4445C36.4751 51.0566 36.7248 51.6895 36.9272 52.3382C37.129 52.9869 37.2817 53.6499 37.3841 54.3215C37.4225 54.5798 37.4481 54.789 37.4588 54.9342C37.4707 55.009 37.4729 55.0851 37.4652 55.1605Z" fill="#455A64"/>
<path d="M62.6245 43.4953C62.5007 42.4941 62.838 35.1094 62.8231 34.9856C62.8081 34.8618 59.5396 24.6441 59.5396 24.6441L58.6557 21.4204L52.0375 27.0587C52.0375 27.0587 48.8565 25.1373 48.9099 24.9921L48.596 26.969L48.0474 27.2765L48.5683 35.7584L49.7318 68.4631C49.7318 68.4631 51.9222 70.045 56.6233 69.9575C62.4879 69.8401 70.2547 65.4891 70.2547 65.4891C70.2547 65.4891 62.7483 44.4966 62.6245 43.4953Z" fill="white"/>
<path d="M50.665 30.1116L51.8051 31.3072L53.1778 31.0787L53.6881 29.6078L52.5929 28.0344L51.5147 28.2735L50.665 30.1116Z" fill="#FF5963"/>
<path d="M59.1665 25.8696C59.0836 25.9804 58.9883 26.0814 58.8825 26.1706L58.0649 26.937C57.3689 27.5775 56.3975 28.4528 55.3172 29.4114L54.3032 30.308L54.2327 30.37L54.1729 30.3016C53.5726 29.5899 53.0367 28.8261 52.5717 28.0194C52.3924 27.7248 52.2558 27.4857 52.1618 27.3213C52.1061 27.2408 52.0629 27.1522 52.0338 27.0587C52.2697 27.3417 52.4838 27.6421 52.6742 27.9575C53.1687 28.734 53.7165 29.4752 54.3138 30.1757H54.1836L55.1955 29.2747C56.2737 28.3162 57.26 27.4558 57.9709 26.841L58.8249 26.1215C58.927 26.0226 59.0419 25.9379 59.1665 25.8696Z" fill="#263238"/>
<path d="M48.861 29.0015C49.0394 29.1167 49.2011 29.2561 49.3413 29.4157C49.6295 29.6889 50.0266 30.0839 50.4792 30.5429L50.3298 30.5664C50.4451 30.3337 50.5625 30.0796 50.682 29.8149C51.03 29.0442 51.3396 28.3418 51.5851 27.8444C51.7003 27.5644 51.851 27.3003 52.0334 27.0587C51.9486 27.3476 51.8401 27.6289 51.7089 27.8999C51.4954 28.4101 51.2072 29.121 50.855 29.8939C50.7354 30.1607 50.6137 30.4169 50.492 30.6496L50.4323 30.7649L50.3426 30.6731C49.8985 30.2034 49.5206 29.7935 49.2559 29.4968C49.1048 29.3482 48.9722 29.1819 48.861 29.0015Z" fill="#263238"/>
<path d="M51.8053 31.3072V63.3756L55.6908 67.2867L58.5473 63.0191L53.178 31.0787L51.8053 31.3072Z" fill="#FF5963"/>
<path opacity="0.3" d="M64.5032 60.4956L69.2661 77.8609C69.3215 78.064 69.4222 78.2519 69.5607 78.4105C69.6991 78.5691 69.8718 78.6942 70.0656 78.7764C70.2594 78.8586 70.4693 78.8958 70.6795 78.8851C70.8898 78.8745 71.0949 78.8163 71.2794 78.7149L75.483 76.4049" fill="black"/>
<path d="M71.5747 53.3586L73.2527 25.1779L62.7063 23.6023C62.7063 23.6023 59.205 21.8453 58.9168 21.6809L59.3886 24.7039C59.3886 24.7039 60.5778 40.1137 61.4766 46.29C62.3754 52.4663 62.3561 54.3194 64.5039 60.4914C66.2481 65.4977 69.3992 73.9221 70.5264 76.9301C70.5787 77.0688 70.6596 77.1949 70.764 77.3002C70.8684 77.4054 70.9938 77.4874 71.1321 77.5408C71.2703 77.5942 71.4183 77.6178 71.5663 77.6101C71.7143 77.6024 71.859 77.5634 71.991 77.4959L80.5519 73.0958L71.5747 53.3586Z" fill="#263238"/>
<path d="M63.1583 52.4342C63.1417 52.334 63.1331 52.2326 63.1327 52.131C63.1327 51.9325 63.105 51.6379 63.105 51.26C63.105 50.5021 63.105 49.4048 63.1434 48.0576C63.2181 45.3506 63.3932 41.6145 63.6323 37.4898C63.8223 34.185 64.0208 31.1321 64.1938 28.6834L64.2322 28.7559L62.6865 27.8123L62.6225 27.7739L62.6673 27.7141L63.8244 26.1919V26.2517L62.9 24.7274C62.8039 24.5587 62.725 24.4242 62.663 24.3196C62.6338 24.2739 62.6095 24.2252 62.5905 24.1744C62.6281 24.2139 62.6611 24.2576 62.6887 24.3047C62.7548 24.4071 62.8402 24.5374 62.947 24.6975L63.9098 26.2047L63.929 26.2346L63.9077 26.2645C63.5789 26.7086 63.2017 27.2217 62.7762 27.8038L62.757 27.7056L64.3133 28.615L64.3539 28.6385V28.6876C64.2066 31.1449 64.0251 34.1936 63.8287 37.4963C63.5896 41.6188 63.4017 45.3527 63.2843 48.0555C63.2267 49.409 63.1989 50.5021 63.184 51.2579C63.184 51.6357 63.184 51.9282 63.184 52.1289C63.1839 52.2312 63.1753 52.3333 63.1583 52.4342Z" fill="#455A64"/>
<path d="M48.5642 77.9591C48.7508 78.0269 48.9515 78.0467 49.1478 78.0168C49.3441 77.9869 49.5298 77.9083 49.6878 77.7881C49.8459 77.6678 49.9712 77.5099 50.0524 77.3287C50.1336 77.1474 50.168 76.9488 50.1526 76.7508L49.9113 54.994L48.767 25.876L47.7422 27.6522L41.3375 31.0787C41.3375 31.0787 41.788 34.1936 42.6633 39.3302C43.5151 44.2511 45.1804 56.3325 45.1804 56.3325L43.8994 76.2299L48.5642 77.9591Z" fill="#263238"/>
<path d="M42.072 35.6794C42.0792 35.6958 42.0842 35.713 42.087 35.7307C42.087 35.7712 42.1041 35.8203 42.1169 35.8823C42.1446 36.0253 42.1788 36.2196 42.2258 36.4672C42.3154 36.986 42.4393 37.7204 42.5994 38.6235C42.9089 40.4467 43.3252 42.9659 43.7586 45.7519C44.192 48.538 44.5571 51.0678 44.7941 52.9017C44.9136 53.8176 45.0075 54.5606 45.0545 55.0751C45.0801 55.3248 45.0993 55.5213 45.1143 55.6664C45.1143 55.7276 45.1186 55.7789 45.1271 55.8201C45.13 55.8378 45.13 55.8558 45.1271 55.8735C45.1271 55.8735 45.1271 55.8564 45.1164 55.8223C45.1058 55.7881 45.1015 55.7305 45.0929 55.6686C45.0737 55.5255 45.046 55.3291 45.0118 55.0793C44.9414 54.5584 44.8389 53.8197 44.7151 52.9124C44.4589 51.0807 44.0746 48.5572 43.6476 45.769C43.2206 42.9808 42.8107 40.4702 42.5204 38.6363C42.3773 37.7311 42.2621 36.9945 42.1809 36.4736C42.1425 36.226 42.1147 36.0296 42.0934 35.8865C42.0934 35.8225 42.0785 35.7734 42.072 35.7328C42.0701 35.7151 42.0701 35.6972 42.072 35.6794Z" fill="#455A64"/>
<g opacity="0.3">
<path d="M42.4672 38.0599C41.5962 42.1504 42.4245 46.9966 44.2392 50.31C43.6499 46.6273 43.0564 41.749 42.4672 38.0599Z" fill="black"/>
</g>
<path d="M50.063 68.6616C50.0732 68.7151 50.0789 68.7694 50.0801 68.8239C50.0801 68.9392 50.095 69.0929 50.1036 69.285C50.1228 69.6992 50.1463 70.2756 50.1762 70.9929C50.2253 72.4404 50.2936 74.4088 50.3683 76.6013L50.3811 77.0091C50.3892 77.1789 50.3614 77.3484 50.2998 77.5068C50.2381 77.6652 50.1438 77.8088 50.023 77.9284C49.9022 78.0479 49.7576 78.1408 49.5987 78.2009C49.4397 78.261 49.2698 78.287 49.1002 78.2772C48.972 78.2677 48.8461 78.2389 48.7266 78.1918L48.3914 78.0595L46.043 77.1244L44.4674 76.4839L44.0404 76.3046C43.9906 76.2849 43.9422 76.2621 43.8953 76.2363C43.9479 76.2468 43.9994 76.2625 44.049 76.2832L44.476 76.4434L46.0665 77.0497L48.4149 77.9634C48.6285 78.068 48.8566 78.1399 49.0916 78.1769C49.3394 78.1921 49.5851 78.1236 49.7892 77.9822C49.9933 77.8409 50.1439 77.635 50.2167 77.3977C50.2704 77.1386 50.2819 76.8726 50.2509 76.6099C50.189 74.4237 50.1313 72.4468 50.0908 70.9993C50.0758 70.2906 50.063 69.7184 50.0545 69.2914C50.0545 69.0993 50.0545 68.9456 50.0545 68.8281C50.0517 68.7725 50.0545 68.7167 50.063 68.6616Z" fill="#455A64"/>
<path d="M71.5931 37.2657L82.6049 42.3745L74.7058 53.8689L80.9739 58.3863C80.9739 58.3863 88.7172 48.6725 91.326 43.3117C91.9046 42.1205 92.3145 38.2627 89.8444 36.3285C88.5165 35.2866 86.1403 33.8712 81.815 30.8716C79.2062 29.0634 73.8561 26.1428 73.8561 26.1428L73.254 25.1736L71.5931 37.2657Z" fill="#263238"/>
<path d="M71.4845 36.8964C71.4601 36.8627 71.44 36.8261 71.4247 36.7875L71.2689 36.463C71.2369 36.3904 71.2006 36.3114 71.16 36.2281C71.1194 36.1449 71.0895 36.0424 71.0511 35.9378C70.9581 35.7046 70.8776 35.4665 70.8099 35.2247C70.7736 35.0902 70.733 34.9493 70.6924 34.7978C70.6519 34.6462 70.6284 34.4946 70.5942 34.3345C70.5229 33.9916 70.4695 33.6453 70.4341 33.2969C70.2731 31.6943 70.4648 30.0759 70.9956 28.5553C71.1109 28.2251 71.2427 27.9009 71.3906 27.5839C71.461 27.4366 71.5208 27.2893 71.6041 27.1569C71.6873 27.0246 71.7492 26.8965 71.8175 26.7748C71.9396 26.5546 72.0728 26.3408 72.2168 26.1343C72.2787 26.0425 72.3342 25.955 72.3897 25.8781L72.552 25.6646C72.6438 25.5515 72.7185 25.4511 72.7761 25.385C72.8016 25.3517 72.8302 25.321 72.8615 25.2932C72.8433 25.331 72.8212 25.3668 72.7953 25.3999L72.5818 25.6902L72.4303 25.9037C72.3748 25.9806 72.3235 26.0703 72.2637 26.1621C72.1485 26.3499 72.0054 26.5549 71.8816 26.8025C71.8161 26.9235 71.745 27.0516 71.6681 27.1868C71.5977 27.3192 71.5379 27.4665 71.4696 27.6138C71.3265 27.9084 71.2155 28.2372 71.0874 28.5809C70.5745 30.0901 70.3853 31.6905 70.5323 33.2777C70.5772 33.6428 70.6092 33.9886 70.6796 34.3067C70.7117 34.4668 70.7351 34.6227 70.7714 34.77C70.8077 34.9173 70.8462 35.0561 70.8825 35.197C70.9444 35.4681 71.0362 35.7008 71.096 35.91C71.1322 36.0146 71.1621 36.1129 71.1963 36.2004L71.2966 36.4395L71.4397 36.7789C71.4596 36.816 71.4747 36.8555 71.4845 36.8964Z" fill="#455A64"/>
<path d="M87.2738 40.7733C87.2738 40.7925 86.9856 40.7306 86.5202 40.72C86.2474 40.7139 85.9747 40.7303 85.7046 40.7691C85.0435 40.8648 84.4079 41.0904 83.8345 41.433C83.6044 41.5717 83.3859 41.7288 83.1812 41.9027C82.8268 42.2058 82.6453 42.4343 82.6282 42.4193C82.6604 42.3586 82.6999 42.302 82.7457 42.2507C82.7941 42.1867 82.8469 42.126 82.9036 42.0692C82.9747 41.9896 83.0503 41.914 83.1299 41.8429C83.3347 41.6551 83.5562 41.4865 83.7918 41.3391C84.0825 41.1619 84.39 41.0139 84.7098 40.8971C85.0318 40.7852 85.3645 40.7065 85.7025 40.6623C85.9779 40.6276 86.2559 40.6183 86.533 40.6346C86.6395 40.6398 86.7457 40.6505 86.8511 40.6666C86.9309 40.6761 87.01 40.6903 87.0881 40.7093C87.1528 40.7214 87.2154 40.7429 87.2738 40.7733Z" fill="#455A64"/>
<path d="M74.2257 55.2011L78.9097 59.6844L80.3017 57.9018L75.0562 54.0909L74.2257 55.2011Z" fill="white"/>
<path d="M63.8733 55.2928C63.8733 55.2928 67.1205 54.0759 67.6286 54.1955C68.1368 54.315 70.9036 55.5896 71.4715 55.5597C72.0394 55.5298 72.7524 55.5597 72.7524 55.5597C72.7524 55.5597 72.1312 54.7292 72.1888 54.3727C72.2035 54.292 72.2422 54.2176 72.2998 54.1592C72.3594 54.0988 72.4315 54.0522 72.5111 54.0228C72.5907 53.9934 72.6758 53.9819 72.7603 53.989C72.8449 53.9961 72.9268 54.0218 73.0003 54.0641C73.0739 54.1064 73.1372 54.1644 73.1858 54.2339C73.6277 54.8274 74.5351 55.7988 74.7784 55.7134L78.032 58.8282C78.032 58.8282 77.1567 60.6322 75.5192 60.6621C73.8818 60.692 69.5906 60.3654 69.2533 60.4849C68.916 60.6045 68.2648 60.8692 68.2648 60.8692C68.2648 60.8692 66.5697 62.2355 66.2602 62.2057C65.9506 62.1758 65.6197 62.116 65.6389 61.7296C65.6581 61.3431 67.3895 59.8081 67.6991 59.5349C68.0087 59.2616 69.0548 58.8517 69.0548 58.8517L66.9561 59.2403C66.9561 59.2403 64.7529 60.4572 64.1594 60.3077C63.5659 60.1583 63.4549 59.9512 63.6236 59.6843C63.7922 59.4175 66.4181 57.8739 66.4181 57.8739L66.89 57.5814C66.89 57.5814 64.1253 58.9819 63.5403 58.9435C62.9553 58.9051 62.7077 58.6169 62.8998 58.2902C63.092 57.9636 65.6368 56.4798 65.8631 56.2727C66.0894 56.0657 66.717 55.9461 66.717 55.9461C66.0821 56.1676 65.4089 56.2584 64.738 56.213C63.5638 56.1532 63.7324 55.7091 63.8733 55.2928Z" fill="#FFBF9D"/>
<path d="M69.4841 57.2954C68.3381 57.1095 67.1629 57.3211 66.1537 57.8953C66.2796 57.7769 66.4238 57.6795 66.5807 57.6071C66.9474 57.4106 67.343 57.2737 67.7527 57.2014C68.1614 57.1267 68.5792 57.1166 68.991 57.1716C69.1607 57.1877 69.327 57.2295 69.4841 57.2954Z" fill="#FF5963"/>
<path d="M69.0527 55.6729C68.4973 55.5722 67.9294 55.5606 67.3704 55.6387C66.8179 55.7535 66.287 55.9545 65.797 56.2343C65.9142 56.112 66.0523 56.0115 66.2048 55.9376C66.5611 55.7377 66.9487 55.5999 67.3512 55.5298C67.7538 55.4597 68.1655 55.4597 68.5681 55.5298C68.737 55.5479 68.9011 55.5963 69.0527 55.6729Z" fill="#FF5963"/>
<path d="M25.4405 54.9598C25.1597 55.1403 24.8186 55.2018 24.4924 55.131C24.1661 55.0601 23.8813 54.8626 23.7006 54.5819L12.7848 37.5817C12.6046 37.3005 12.5433 36.9593 12.6146 36.633C12.6858 36.3067 12.8838 36.0221 13.1648 35.8417C13.4458 35.6621 13.7865 35.6013 14.1123 35.6725C14.4381 35.7438 14.7223 35.9413 14.9026 36.2217L25.8184 53.2177C25.9087 53.3567 25.9705 53.5122 26.0004 53.6752C26.0302 53.8382 26.0275 54.0055 25.9924 54.1675C25.9573 54.3294 25.8904 54.4828 25.7957 54.6188C25.701 54.7548 25.5803 54.8707 25.4405 54.9598Z" fill="#455A64"/>
<path opacity="0.3" d="M16.5489 38.7815L14.3606 40.0347L14.8474 40.7904L17.0143 39.5095L16.5489 38.7815Z" fill="black"/>
<path d="M10.5626 26.7108C14.1577 33.2564 15.8336 39.2106 14.3157 40.0432C12.7978 40.8759 8.66036 36.2751 5.06518 29.7338C1.47 23.1924 -0.214438 17.204 1.30348 16.3693C2.8214 15.5345 6.96525 20.163 10.5626 26.7108Z" fill="white"/>
<path d="M12.8451 25.5066C9.24992 18.9589 5.10607 14.3283 3.58815 15.1609L0.560852 16.7749C2.07877 15.9423 6.22476 20.5729 9.81994 27.1206C13.4151 33.6684 15.0996 39.6504 13.5816 40.483L16.2439 38.9587L16.895 38.5872H16.9057C17.8536 37.0906 16.1606 31.542 12.8451 25.5066Z" fill="#455A64"/>
<path d="M6.00463 28.9887C3.19936 23.8777 1.56402 19.1211 1.70279 16.8795C1.23952 16.666 0.848831 16.6148 0.556349 16.7749C-0.96157 17.6096 0.72287 23.5916 4.31805 30.1394C7.91323 36.6871 12.0592 41.3177 13.5771 40.483C13.908 40.3015 14.0938 39.8746 14.1322 39.2448C12.1852 38.3267 8.91023 34.2768 6.00463 28.9887Z" fill="#263238"/>
<path d="M8.88721 32.8571C8.85519 32.8571 8.88721 31.51 8.93845 29.849C8.98969 28.1881 9.06868 26.8431 9.1007 26.8431C9.13273 26.8431 9.1007 28.1923 9.04947 29.8533C8.99823 31.5143 8.9171 32.8592 8.88721 32.8571Z" fill="#455A64"/>
<path d="M7.17869 29.6825C7.15393 29.49 7.14749 29.2955 7.15947 29.1018C7.15947 28.7453 7.17442 28.2478 7.19363 27.7056C7.21285 27.1633 7.23633 26.6659 7.25768 26.3093C7.25965 26.115 7.27966 25.9214 7.31746 25.7308C7.34346 25.9232 7.3499 26.1178 7.33667 26.3115C7.33667 26.6701 7.32386 27.1654 7.30465 27.7098C7.28543 28.2542 7.25981 28.7474 7.23847 29.1061C7.23642 29.2996 7.21641 29.4926 7.17869 29.6825Z" fill="#455A64"/>
<path d="M8.12934 30.1949C8.1091 29.7148 8.1248 29.2338 8.17631 28.756C8.1919 28.276 8.244 27.7978 8.33215 27.3256C8.3551 27.8057 8.34011 28.2868 8.28732 28.7646C8.27298 29.2448 8.22015 29.7231 8.12934 30.1949Z" fill="#455A64"/>
<path d="M15.4597 41.7469C15.4747 41.8003 18.5767 42.492 18.9097 43.047C19.2428 43.6021 18.7944 43.837 18.3973 43.9394C18.232 43.9968 18.0579 44.0249 17.8828 44.0227C17.8828 44.0227 19.8427 44.3323 19.8918 45.0475C19.9409 45.7626 19.1211 45.8182 19.1211 45.8182C19.1211 45.8182 19.8256 46.1149 19.8405 46.7426C19.8503 46.9114 19.7948 47.0776 19.6856 47.2067C19.5763 47.3359 19.4216 47.4181 19.2534 47.4364C19.2534 47.4364 19.99 47.6841 19.3773 48.2583C18.7646 48.8326 17.2552 48.5209 17.2552 48.5209" fill="#FFBF9D"/>
<path d="M17.2558 48.5209C17.2558 48.5209 17.3369 48.5209 17.4885 48.5466C17.7073 48.5732 17.9277 48.5854 18.1482 48.5829C18.489 48.5931 18.8276 48.5259 19.1388 48.3864C19.3238 48.2945 19.4738 48.1445 19.5657 47.9595C19.5857 47.9126 19.5924 47.8612 19.5853 47.8108C19.5781 47.7604 19.5573 47.7129 19.5252 47.6734C19.4513 47.5883 19.3563 47.5243 19.2498 47.4877C19.2382 47.4833 19.2288 47.4746 19.2236 47.4635C19.2185 47.4523 19.2179 47.4395 19.222 47.4279C19.2249 47.4201 19.2298 47.4133 19.2362 47.4081C19.2425 47.4028 19.2502 47.3993 19.2583 47.398C19.4196 47.3762 19.5671 47.2956 19.6725 47.1717C19.7237 47.1037 19.7608 47.0262 19.7817 46.9438C19.8026 46.8613 19.8068 46.7755 19.7942 46.6913C19.7621 46.3348 19.4547 46.0381 19.1089 45.8758C19.096 45.8694 19.0862 45.8582 19.0814 45.8447C19.0767 45.8311 19.0773 45.8163 19.0833 45.8032C19.0875 45.7946 19.0938 45.7871 19.1016 45.7815C19.1094 45.7759 19.1185 45.7724 19.1281 45.7712C19.2645 45.7657 19.3973 45.7261 19.5145 45.656C19.6316 45.5859 19.7292 45.4875 19.7984 45.3698C19.8536 45.2424 19.8627 45.0997 19.8241 44.9663C19.7661 44.8345 19.6693 44.7235 19.5465 44.6482C19.2923 44.4881 19.0162 44.3658 18.7267 44.2853C18.4503 44.2002 18.1686 44.1332 17.8834 44.0846L17.9027 43.9779C18.0895 43.9689 18.2746 43.9366 18.4535 43.8818C18.6275 43.8437 18.7869 43.7562 18.9125 43.6299C18.9596 43.564 18.9862 43.4857 18.9888 43.4048C18.9915 43.3238 18.9701 43.2439 18.9274 43.1751C18.8968 43.1005 18.8493 43.034 18.7886 42.9809C18.7257 42.9298 18.6586 42.8841 18.588 42.8442C18.3135 42.6988 18.0279 42.5753 17.734 42.4749C17.4586 42.3767 17.2003 42.2934 16.9676 42.2208C16.0282 41.9348 15.4582 41.7939 15.4731 41.7554C15.4731 41.7554 15.614 41.7939 15.8766 41.8579C16.1392 41.922 16.5171 42.018 16.991 42.1547C17.228 42.223 17.4863 42.302 17.7639 42.398C18.0648 42.4947 18.3569 42.6169 18.6371 42.7631C18.7129 42.8042 18.7845 42.8528 18.8505 42.9083C18.9222 42.9696 18.9791 43.0462 19.0171 43.1324C19.0598 43.2183 19.0845 43.3121 19.0897 43.4079C19.0918 43.5118 19.057 43.6132 18.9914 43.6939C18.8541 43.8389 18.6763 43.9394 18.4812 43.9821C18.3873 44.0099 18.2933 44.0312 18.1951 44.0526C18.0924 44.0772 17.9869 44.088 17.8813 44.0846C17.8743 44.0841 17.8674 44.0822 17.8612 44.079C17.8549 44.0758 17.8493 44.0714 17.8448 44.066C17.8402 44.0607 17.8367 44.0544 17.8346 44.0477C17.8324 44.041 17.8316 44.034 17.8322 44.027C17.8333 44.0126 17.8399 43.9993 17.8507 43.9897C17.8614 43.9801 17.8755 43.9751 17.8898 43.9757H17.9005C18.1893 44.0247 18.4745 44.0925 18.7545 44.1786C19.0558 44.2619 19.3434 44.3884 19.6084 44.5543C19.7502 44.6424 19.8612 44.7722 19.9265 44.9258C19.9522 45.0064 19.9616 45.0913 19.9543 45.1756C19.9543 45.214 19.9415 45.2545 19.9351 45.2951C19.9287 45.3357 19.9095 45.3741 19.8967 45.4125C19.8247 45.5574 19.7068 45.6745 19.5615 45.7456C19.4279 45.8134 19.2833 45.8568 19.1345 45.8737L19.1516 45.7691C19.3397 45.8569 19.5088 45.981 19.649 46.1341C19.7867 46.284 19.8727 46.474 19.8945 46.6764C19.9085 46.7734 19.9027 46.8722 19.8774 46.9669C19.8521 47.0616 19.8078 47.1501 19.7472 47.2272C19.6245 47.3693 19.4532 47.4606 19.2669 47.4834L19.2775 47.3937C19.4001 47.4352 19.5093 47.5089 19.5935 47.6072C19.6337 47.6589 19.6594 47.7203 19.668 47.7852C19.6767 47.8501 19.6679 47.9162 19.6426 47.9766C19.5452 48.1783 19.3828 48.3415 19.1815 48.4398C18.8587 48.5797 18.5079 48.6425 18.1567 48.6234C17.9341 48.6201 17.7121 48.5994 17.4927 48.5615C17.4124 48.5577 17.3328 48.5441 17.2558 48.5209Z" fill="#FF5963"/>
<path d="M19.1773 45.8096C19.0126 45.8029 18.8493 45.7772 18.6906 45.7327L17.5249 45.5192C17.0702 45.4317 16.656 45.3548 16.3593 45.2929C16.1959 45.2689 16.0355 45.2274 15.881 45.1691C16.0459 45.1649 16.2107 45.1799 16.3721 45.2139C16.6731 45.2566 17.0894 45.3228 17.5463 45.4082C18.0031 45.4936 18.413 45.5875 18.7077 45.6665C18.8693 45.6955 19.027 45.7435 19.1773 45.8096Z" fill="#FF5963"/>
<path d="M16.0242 43.568C16.3478 43.5628 16.6703 43.606 16.9811 43.6961C17.3002 43.7502 17.6091 43.8525 17.8974 43.9994C17.5788 43.9595 17.2639 43.8945 16.9555 43.8051C16.6392 43.7513 16.3277 43.672 16.0242 43.568Z" fill="#FF5963"/>
<path d="M16.615 47.1524C16.7418 47.1244 16.8718 47.1143 17.0014 47.1225C17.2405 47.1225 17.5714 47.1225 17.9365 47.1588C18.3799 47.177 18.8169 47.2716 19.2281 47.4385C19.2281 47.4684 18.6496 47.3296 17.9258 47.2698C17.4871 47.254 17.0495 47.2148 16.615 47.1524Z" fill="#FF5963"/>
</g>
<defs>
<clipPath id="clip0_5603_3842">
<rect width="91.7647" height="94.9094" fill="white" transform="translate(0 0.0905762)"/>
</clipPath>
</defs>
</svg>
